<svg xmlns="http://www.w3.org/2000/svg" viewBox="0 0 115 20"><path d="M4.6 19.5c-1.3 0-2.3-.2-3.3-.7-.9-.4-1.4-1.1-1.4-2 0-.5.2-1 .7-1.4.5-.4 1-.8 1.7-1 .7-.3 1.5-.5 2.4-.7.2-.1.3-.1.4-.1l.4.4c-.6.2-1.1.4-1.4.6-.4.2-.7.4-.9.7-.2.2-.3.4-.3.7 0 .4.2.7.6.9.4.2.9.3 1.5.3s1.2-.1 1.7-.2c.6-.1 1-.3 1.4-.6.4-.3.5-.6.5-.9 0-.2-.1-.4-.3-.5-.2-.1-.5-.2-.8-.2-.3 0-.6 0-1 .1-.3.1-.7.1-1.2.3-.4.1-.8.2-1.1.3-.3.1-.6.1-.9.1-.5 0-1.1-.1-1.5-.3-.4-.3-.8-.6-1.1-.9-.3-.3-.4-.7-.4-1.2 0-.6.3-1.1.9-1.6.6-.5 1.5-.9 2.6-1.2l.7.6c-.2 0-.4.1-.5.1-.3.1-.6.3-.8.4-.2.2-.2.4-.2.6 0 .2.1.4.3.5.2.1.4.2.7.2.3 0 .6 0 1-.1.3-.1.7-.1 1-.2.6-.1 1.1-.2 1.5-.2s.9-.1 1.4-.1c.9 0 1.6.2 2.2.6.6.4.9 1.1.9 2 0 1-.4 1.9-1.1 2.6-.8.7-1.8 1.2-2.9 1.6-1.2.3-2.3.5-3.4.5zm.9-7.7c-.9 0-1.8-.2-2.5-.5-.8-.3-1.3-.8-1.8-1.4C.8 9.4.6 8.7.6 8s.2-1.4.6-1.9c.4-.6 1-1 1.7-1.4.7-.3 1.6-.5 2.5-.5.6 0 1 0 1.4.1.4.1.8.2 1.2.4.2.1.3.1.4.2.1 0 .3.1.4.1.3 0 .6-.1.7-.4.2-.3.3-.6.3-1l2.5.8c0 .5-.2.9-.6 1.2-.4.3-.9.4-1.5.4h-.6c.4.6.6 1.3.6 2s-.2 1.4-.6 2c-.4.6-1 1-1.7 1.4-.7.2-1.5.4-2.4.4zm0-2c.3 0 .6-.1.9-.2.3-.2.4-.4.6-.7.1-.3.2-.6.2-1 0-.5-.2-1-.5-1.3-.3-.3-.7-.5-1.2-.5-.3 0-.6.1-.9.2-.3.2-.5.4-.6.7-.2.3-.2.6-.2 1 0 .5.2 1 .5 1.4.3.3.7.4 1.2.4zm7.6-5.4h3.2v8.3c0 .9 0 1.8.1 2.6h-3.3V4.4zM13 .5h3.2v2.8H13V.5zm14.7 15.1c-.9 0-1.5-.2-2-.7-.5-.5-.7-1.2-.7-2.2V8.4c0-.6-.2-1.1-.5-1.4-.3-.3-.7-.5-1.4-.5-.6 0-1.3.2-1.9.6-.6.4-1.1.9-1.6 1.6l-2-1.7c.8-.9 1.6-1.6 2.6-2.1s2.1-.7 3.3-.7c1.1 0 2 .2 2.7.5.7.3 1.2.8 1.5 1.4.3.6.5 1.3.5 2.2v4.5c0 .2.1.4.2.5s.2.2.4.2h.4c.1 0 .3-.1.5-.1l-.4 1.9c-.2.1-.5.2-.7.2-.4.1-.7.1-.9.1zm-6.5 0c-1.1 0-2-.3-2.6-.8-.6-.6-.9-1.3-.9-2.2 0-.8.3-1.5.9-2.1.6-.6 1.5-1.1 2.6-1.5 1.2-.4 2.6-.6 4.3-.8v2c-1 .1-1.9.2-2.5.4-.7.2-1.1.4-1.5.7-.3.3-.5.6-.5.9 0 .3.1.5.3.7.2.2.5.3.9.3.5 0 1-.1 1.4-.3.4-.2.8-.5 1-1 .3-.4.4-.9.4-1.5l.6.2c0 .9-.2 1.7-.5 2.4-.3.8-.8 1.4-1.5 1.9-.6.5-1.4.7-2.4.7zm9.2-11.2h3.2V7c.4-.9.9-1.6 1.5-2.1s1.2-.8 1.8-.8c.4 0 .7.1 1 .2.3.1.6.3.9.5l-1.3 2.8c-.3-.2-.5-.3-.8-.4-.1-.1-.4-.2-.7-.2-.4 0-.8.1-1.2.4-.4.2-.7.6-.9 1.1s-.3 1.1-.3 1.8v2.4c0 .9 0 1.8.1 2.6h-3.3V4.4zm13.2 11.2c-1 0-1.9-.2-2.7-.7-.8-.5-1.4-1.1-1.8-2-.4-.9-.6-1.9-.6-3s.2-2.1.6-3c.4-.9 1-1.5 1.8-2s1.7-.7 2.7-.7c.7 0 1.4.2 2.1.6.6.4 1.2.9 1.6 1.5V1H50v11.7c0 .9.1 1.8.2 2.6h-2.9v-1.9c-.4.7-.9 1.2-1.5 1.6-.7.4-1.4.6-2.2.6zm-1.8-5.7c0 .7.1 1.2.3 1.7.2.5.5.9.9 1.2.4.3.9.4 1.4.4.5 0 .9-.1 1.4-.4.4-.3.7-.6 1-1.1.3-.5.4-1 .4-1.5v-.6c0-.5-.1-1-.4-1.5-.3-.5-.6-.8-1-1.1-.4-.3-.9-.4-1.3-.4-.5 0-1 .1-1.4.4-.4.3-.7.7-.9 1.2-.3.5-.4 1-.4 1.7zM57 15.6c-1 0-1.9-.2-2.7-.7-.8-.5-1.4-1.2-1.8-2-.4-.9-.6-1.9-.6-3s.2-2.1.6-3c.4-.9 1.1-1.5 1.8-2 .8-.5 1.7-.7 2.7-.7.9 0 1.7.2 2.4.7.7.5 1.3 1.1 1.7 1.9V1h1.8v11.7c0 1 0 1.8.1 2.6h-1.9V13c-.4.8-.9 1.4-1.6 1.9-.8.5-1.6.7-2.5.7zm-3.2-5.7c0 .8.2 1.6.5 2.2.3.6.7 1.1 1.3 1.5.5.4 1.2.5 1.9.5s1.3-.2 1.8-.5c.6-.3 1-.8 1.3-1.4.3-.6.5-1.2.5-1.9v-1c0-.7-.2-1.3-.5-1.9-.3-.6-.8-1-1.3-1.4-.5-.3-1.1-.5-1.8-.5s-1.3.2-1.9.5c-.5.4-1 .9-1.3 1.5-.3.8-.5 1.6-.5 2.4zm16.5 5.7c-1 0-1.9-.2-2.7-.6-.8-.4-1.5-1-2-1.8s-.7-1.8-.7-3 .1-2.2.6-3.1c.5-.9 1.1-1.6 2-2.1.8-.5 1.8-.8 2.9-.8 1.1 0 2 .2 2.8.7s1.3 1.2 1.7 2.1c.4.9.6 1.9.6 3.1h-9.7V8.7h8.5l-.7.6c0-.7-.1-1.3-.4-1.9-.3-.6-.6-1-1.1-1.3-.5-.3-1.1-.5-1.7-.5-.7 0-1.4.2-1.9.6-.5.4-1 .9-1.3 1.6-.3.7-.5 1.5-.5 2.4 0 .9.2 1.7.5 2.3.3.6.8 1.1 1.3 1.4.5.3 1.1.4 1.8.4.9 0 1.7-.2 2.4-.7.6-.5 1.1-1.1 1.4-1.9l1.5 1.1c-.6 1-1.4 1.7-2.3 2.2-.9.3-1.9.6-3 .6zm11.5 0c-1.1 0-2.2-.2-3.2-.7-1-.5-1.8-1.2-2.3-2.1l1.4-1.1c.4.8.9 1.4 1.7 1.9.8.5 1.6.7 2.5.7.5 0 .9-.1 1.3-.2s.7-.3.9-.6c.2-.3.3-.6.3-.9 0-.4-.1-.7-.4-1-.3-.3-.6-.5-1-.6-.4-.2-1-.3-1.7-.5-.9-.2-1.6-.5-2.2-.7-.5-.2-1-.5-1.4-1-.4-.4-.6-1-.6-1.6 0-.6.2-1.1.5-1.5.3-.5.8-.8 1.4-1 .6-.3 1.3-.4 2.1-.4 1 0 1.9.2 2.7.5.8.3 1.6.9 2.2 1.8l-1.4 1.1c-.3-.7-.8-1.2-1.5-1.5-.7-.3-1.4-.5-2.1-.5-.7 0-1.2.1-1.6.4-.4.3-.6.6-.6 1 0 .3.1.6.4.9.3.2.6.4 1 .6.4.1.9.3 1.6.5.9.3 1.7.5 2.3.7.6.2 1.1.6 1.5 1 .4.4.6 1 .6 1.8 0 .7-.2 1.3-.6 1.8-.4.5-.9.9-1.6 1.1-.6 0-1.4.1-2.2.1zm6-11.2h1.8v8.3c0 1 0 1.8.1 2.6h-1.9V4.4zM87.7.9h2.1v1.9h-2.1V.9zm7.6 18.6c-1.1 0-2.1-.2-2.9-.7s-1.2-1.1-1.2-2c0-.5.2-.9.5-1.3s.8-.7 1.4-1c.6-.3 1.3-.5 2.1-.7.2 0 .3-.1.4-.1l.2.3c-.6.2-1.1.4-1.5.6-.4.2-.7.5-1 .8s-.4.6-.4 1c0 .6.2 1 .7 1.2.5.3 1.1.4 1.9.4.8 0 1.6-.1 2.3-.4.8-.2 1.4-.6 1.9-1s.7-.9.7-1.5c0-.4-.1-.7-.4-.9-.1-.1-.5-.2-1-.2-.3 0-.7 0-1 .1-.4.1-.9.2-1.5.3-.5.1-1 .3-1.3.3-.3.1-.7.1-.9.1-.5 0-.9-.1-1.3-.2s-.7-.4-1-.6c-.2-.3-.4-.6-.4-1 0-.6.3-1.1.8-1.5.6-.4 1.3-.8 2.3-1l.4.5c-.3.1-.5.2-.7.3-.4.2-.7.3-.9.6-.2.2-.3.4-.3.7 0 .3.1.5.4.6.2.1.6.2.9.2.3 0 .7 0 1-.1l1.2-.3c.6-.1 1-.3 1.4-.3.4-.1.8-.1 1.3-.1.9 0 1.6.2 2.2.6.5.4.8 1 .8 1.9 0 .9-.4 1.7-1.1 2.4-.7.7-1.6 1.2-2.7 1.6-1 .2-2.1.4-3.3.4zm1.1-7.8c-.9 0-1.6-.2-2.3-.5-.7-.3-1.2-.8-1.5-1.4-.4-.5-.6-1.2-.6-1.9s.2-1.3.5-1.9c.4-.6.9-1 1.5-1.3.7-.3 1.4-.5 2.3-.5.6 0 1 .1 1.4.2.4.1.8.3 1.2.5l.6.3c.2.1.3.1.5.1.4 0 .7-.1.9-.4.2-.3.3-.6.3-1l1.5.5c0 .5-.2.9-.6 1.2-.4.3-.9.4-1.4.4h-.5c.4.6.6 1.2.6 2 0 .7-.2 1.3-.5 1.9-.4.6-.9 1-1.5 1.4-.8.2-1.6.4-2.4.4zm0-1.2c.5 0 1-.1 1.3-.3.4-.2.7-.5.9-.9.2-.4.3-.8.3-1.3 0-.7-.2-1.3-.7-1.8-.4-.5-1-.7-1.8-.7-.5 0-1 .1-1.3.3-.4.2-.7.5-.9.9-.2.3-.3.7-.3 1.2 0 .7.2 1.3.7 1.8.4.5 1 .8 1.8.8zm7.6-6.1h1.8v3.2c.3-.7.6-1.3 1.1-1.8.5-.5 1.1-.9 1.7-1.2.6-.3 1.3-.4 1.9-.4.8 0 1.5.2 2 .5.6.3 1 .7 1.2 1.3.3.5.4 1.2.4 1.9v4.9c0 1 0 1.8.1 2.6h-1.9V8.1c0-.8-.2-1.4-.6-1.8-.4-.4-1-.6-1.9-.6-.6 0-1.3.2-1.9.6-.6.4-1.2.9-1.6 1.6-.4.7-.6 1.5-.6 2.4v5H104V4.4z" fill="#fff"/></svg>