<?xml version="1.0" encoding="utf-8"?>
<!-- Generator: Adobe Illustrator 27.8.1, SVG Export Plug-In . SVG Version: 6.00 Build 0)  -->
<svg version="1.1" id="Layer_1" xmlns="http://www.w3.org/2000/svg" xmlns:xlink="http://www.w3.org/1999/xlink" x="0px" y="0px"
	 viewBox="0 0 115 20" style="enable-background:new 0 0 115 20;" xml:space="preserve">
<style type="text/css">
	.st0{fill:#FFFFFF;}
</style>
<path class="st0" d="M4.6,19.5c-1.3,0-2.3-0.2-3.3-0.7c-0.9-0.4-1.4-1.1-1.4-2c0-0.5,0.2-1,0.7-1.4c0.5-0.4,1-0.8,1.7-1
	c0.7-0.3,1.5-0.5,2.4-0.7c0.2-0.1,0.3-0.1,0.4-0.1L5.5,14c-0.6,0.2-1.1,0.4-1.4,0.6c-0.4,0.2-0.7,0.4-0.9,0.7
	C3,15.5,2.9,15.7,2.9,16c0,0.4,0.2,0.7,0.6,0.9c0.4,0.2,0.9,0.3,1.5,0.3c0.6,0,1.2-0.1,1.7-0.2c0.6-0.1,1-0.3,1.4-0.6
	c0.4-0.3,0.5-0.6,0.5-0.9c0-0.2-0.1-0.4-0.3-0.5c-0.2-0.1-0.5-0.2-0.8-0.2c-0.3,0-0.6,0-1,0.1c-0.3,0.1-0.7,0.1-1.2,0.3
	c-0.4,0.1-0.8,0.2-1.1,0.3c-0.3,0.1-0.6,0.1-0.9,0.1c-0.5,0-1.1-0.1-1.5-0.3C1.4,15,1,14.7,0.7,14.4c-0.3-0.3-0.4-0.7-0.4-1.2
	c0-0.6,0.3-1.1,0.9-1.6c0.6-0.5,1.5-0.9,2.6-1.2L4.5,11C4.3,11,4.1,11.1,4,11.1c-0.3,0.1-0.6,0.3-0.8,0.4C3,11.7,3,11.9,3,12.1
	c0,0.2,0.1,0.4,0.3,0.5c0.2,0.1,0.4,0.2,0.7,0.2c0.3,0,0.6,0,1-0.1c0.3-0.1,0.7-0.1,1-0.2c0.6-0.1,1.1-0.2,1.5-0.2s0.9-0.1,1.4-0.1
	c0.9,0,1.6,0.2,2.2,0.6c0.6,0.4,0.9,1.1,0.9,2c0,1-0.4,1.9-1.1,2.6C10.1,18.1,9.1,18.6,8,19C6.8,19.3,5.7,19.5,4.6,19.5z M5.5,11.8
	c-0.9,0-1.8-0.2-2.5-0.5C2.2,11,1.7,10.5,1.2,9.9C0.8,9.4,0.6,8.7,0.6,8c0-0.7,0.2-1.4,0.6-1.9c0.4-0.6,1-1,1.7-1.4
	c0.7-0.3,1.6-0.5,2.5-0.5c0.6,0,1,0,1.4,0.1C7.2,4.4,7.6,4.5,8,4.7c0.2,0.1,0.3,0.1,0.4,0.2c0.1,0,0.3,0.1,0.4,0.1
	c0.3,0,0.6-0.1,0.7-0.4C9.7,4.3,9.8,4,9.8,3.6l2.5,0.8c0,0.5-0.2,0.9-0.6,1.2C11.3,5.9,10.8,6,10.2,6C10,6,9.8,6,9.6,6
	c0.4,0.6,0.6,1.3,0.6,2c0,0.7-0.2,1.4-0.6,2c-0.4,0.6-1,1-1.7,1.4C7.2,11.6,6.4,11.8,5.5,11.8z M5.5,9.8c0.3,0,0.6-0.1,0.9-0.2
	c0.3-0.2,0.4-0.4,0.6-0.7c0.1-0.3,0.2-0.6,0.2-1c0-0.5-0.2-1-0.5-1.3C6.4,6.3,6,6.1,5.5,6.1c-0.3,0-0.6,0.1-0.9,0.2
	C4.3,6.5,4.1,6.7,4,7C3.8,7.3,3.8,7.6,3.8,8c0,0.5,0.2,1,0.5,1.4C4.6,9.7,5,9.8,5.5,9.8z"/>
<path class="st0" d="M13.1,4.4h3.2v8.3c0,0.9,0,1.8,0.1,2.6h-3.3V4.4z M13,0.5h3.2v2.8H13V0.5z"/>
<path class="st0" d="M27.7,15.6c-0.9,0-1.5-0.2-2-0.7c-0.5-0.5-0.7-1.2-0.7-2.2V8.4c0-0.6-0.2-1.1-0.5-1.4c-0.3-0.3-0.7-0.5-1.4-0.5
	c-0.6,0-1.3,0.2-1.9,0.6c-0.6,0.4-1.1,0.9-1.6,1.6L17.6,7c0.8-0.9,1.6-1.6,2.6-2.1c1-0.5,2.1-0.7,3.3-0.7c1.1,0,2,0.2,2.7,0.5
	c0.7,0.3,1.2,0.8,1.5,1.4c0.3,0.6,0.5,1.3,0.5,2.2v4.5c0,0,0,0,0,0c0,0,0,0,0,0c0,0.2,0.1,0.4,0.2,0.5s0.2,0.2,0.4,0.2
	c0.1,0,0.3,0,0.4,0c0.1,0,0.3-0.1,0.5-0.1l-0.4,1.9c-0.2,0.1-0.5,0.2-0.7,0.2C28.2,15.6,27.9,15.6,27.7,15.6z M21.2,15.6
	c-1.1,0-2-0.3-2.6-0.8c-0.6-0.6-0.9-1.3-0.9-2.2c0-0.8,0.3-1.5,0.9-2.1c0.6-0.6,1.5-1.1,2.6-1.5c1.2-0.4,2.6-0.6,4.3-0.8v2
	c-1,0.1-1.9,0.2-2.5,0.4c-0.7,0.2-1.1,0.4-1.5,0.7c-0.3,0.3-0.5,0.6-0.5,0.9c0,0.3,0.1,0.5,0.3,0.7c0.2,0.2,0.5,0.3,0.9,0.3
	c0.5,0,1-0.1,1.4-0.3c0.4-0.2,0.8-0.5,1-1c0.3-0.4,0.4-0.9,0.4-1.5l0.6,0.2c0,0.9-0.2,1.7-0.5,2.4c-0.3,0.8-0.8,1.4-1.5,1.9
	C23,15.4,22.2,15.6,21.2,15.6z"/>
<path class="st0" d="M30.4,4.4h3.2V7c0.4-0.9,0.9-1.6,1.5-2.1c0.6-0.5,1.2-0.8,1.8-0.8c0.4,0,0.7,0.1,1,0.2c0.3,0.1,0.6,0.3,0.9,0.5
	l-1.3,2.8c-0.3-0.2-0.5-0.3-0.8-0.4C36.6,7.1,36.3,7,36,7c-0.4,0-0.8,0.1-1.2,0.4c-0.4,0.2-0.7,0.6-0.9,1.1s-0.3,1.1-0.3,1.8v2.4
	c0,0.9,0,1.8,0.1,2.6h-3.3V4.4z"/>
<path class="st0" d="M43.6,15.6c-1,0-1.9-0.2-2.7-0.7c-0.8-0.5-1.4-1.1-1.8-2c-0.4-0.9-0.6-1.9-0.6-3c0-1.1,0.2-2.1,0.6-3
	c0.4-0.9,1-1.5,1.8-2c0.8-0.5,1.7-0.7,2.7-0.7c0.7,0,1.4,0.2,2.1,0.6c0.6,0.4,1.2,0.9,1.6,1.5V1H50v11.7c0,0.9,0.1,1.8,0.2,2.6h-2.9
	v-1.9c-0.4,0.7-0.9,1.2-1.5,1.6C45.1,15.4,44.4,15.6,43.6,15.6z M41.8,9.9c0,0.7,0.1,1.2,0.3,1.7c0.2,0.5,0.5,0.9,0.9,1.2
	c0.4,0.3,0.9,0.4,1.4,0.4c0.5,0,0.9-0.1,1.4-0.4c0.4-0.3,0.7-0.6,1-1.1c0.3-0.5,0.4-1,0.4-1.5V9.6c0-0.5-0.1-1-0.4-1.5
	c-0.3-0.5-0.6-0.8-1-1.1c-0.4-0.3-0.9-0.4-1.3-0.4c-0.5,0-1,0.1-1.4,0.4c-0.4,0.3-0.7,0.7-0.9,1.2C41.9,8.7,41.8,9.2,41.8,9.9z"/>
<path class="st0" d="M57,15.6c-1,0-1.9-0.2-2.7-0.7c-0.8-0.5-1.4-1.2-1.8-2c-0.4-0.9-0.6-1.9-0.6-3s0.2-2.1,0.6-3
	c0.4-0.9,1.1-1.5,1.8-2C55.1,4.4,56,4.2,57,4.2c0.9,0,1.7,0.2,2.4,0.7c0.7,0.5,1.3,1.1,1.7,1.9V1h1.8v11.7c0,1,0,1.8,0.1,2.6h-1.9
	V13c-0.4,0.8-0.9,1.4-1.6,1.9C58.7,15.4,57.9,15.6,57,15.6z M53.8,9.9c0,0.8,0.2,1.6,0.5,2.2c0.3,0.6,0.7,1.1,1.3,1.5
	c0.5,0.4,1.2,0.5,1.9,0.5c0.7,0,1.3-0.2,1.8-0.5c0.6-0.3,1-0.8,1.3-1.4c0.3-0.6,0.5-1.2,0.5-1.9v-1c0-0.7-0.2-1.3-0.5-1.9
	c-0.3-0.6-0.8-1-1.3-1.4c-0.5-0.3-1.1-0.5-1.8-0.5c-0.7,0-1.3,0.2-1.9,0.5c-0.5,0.4-1,0.9-1.3,1.5C54,8.3,53.8,9.1,53.8,9.9z"/>
<path class="st0" d="M70.3,15.6c-1,0-1.9-0.2-2.7-0.6c-0.8-0.4-1.5-1-2-1.8c-0.5-0.8-0.7-1.8-0.7-3S65,8,65.5,7.1
	c0.5-0.9,1.1-1.6,2-2.1c0.8-0.5,1.8-0.8,2.9-0.8c1.1,0,2,0.2,2.8,0.7s1.3,1.2,1.7,2.1c0.4,0.9,0.6,1.9,0.6,3.1h-9.7V8.7h8.5
	l-0.7,0.6c0-0.7-0.1-1.3-0.4-1.9c-0.3-0.6-0.6-1-1.1-1.3c-0.5-0.3-1.1-0.5-1.7-0.5c-0.7,0-1.4,0.2-1.9,0.6c-0.5,0.4-1,0.9-1.3,1.6
	c-0.3,0.7-0.5,1.5-0.5,2.4c0,0.9,0.2,1.7,0.5,2.3c0.3,0.6,0.8,1.1,1.3,1.4c0.5,0.3,1.1,0.4,1.8,0.4c0.9,0,1.7-0.2,2.4-0.7
	c0.6-0.5,1.1-1.1,1.4-1.9l1.5,1.1c-0.6,1-1.4,1.7-2.3,2.2C72.4,15.3,71.4,15.6,70.3,15.6z"/>
<path class="st0" d="M81.8,15.6c-1.1,0-2.2-0.2-3.2-0.7c-1-0.5-1.8-1.2-2.3-2.1l1.4-1.1c0.4,0.8,0.9,1.4,1.7,1.9
	c0.8,0.5,1.6,0.7,2.5,0.7c0.5,0,0.9-0.1,1.3-0.2c0.4-0.1,0.7-0.3,0.9-0.6c0.2-0.3,0.3-0.6,0.3-0.9c0-0.4-0.1-0.7-0.4-1
	c-0.3-0.3-0.6-0.5-1-0.6c-0.4-0.2-1-0.3-1.7-0.5c-0.9-0.2-1.6-0.5-2.2-0.7c-0.5-0.2-1-0.5-1.4-1c-0.4-0.4-0.6-1-0.6-1.6
	c0-0.6,0.2-1.1,0.5-1.5c0.3-0.5,0.8-0.8,1.4-1c0.6-0.3,1.3-0.4,2.1-0.4c1,0,1.9,0.2,2.7,0.5c0.8,0.3,1.6,0.9,2.2,1.8l-1.4,1.1
	c-0.3-0.7-0.8-1.2-1.5-1.5c-0.7-0.3-1.4-0.5-2.1-0.5c-0.7,0-1.2,0.1-1.6,0.4c-0.4,0.3-0.6,0.6-0.6,1c0,0.3,0.1,0.6,0.4,0.9
	c0.3,0.2,0.6,0.4,1,0.6c0.4,0.1,0.9,0.3,1.6,0.5c0.9,0.3,1.7,0.5,2.3,0.7c0.6,0.2,1.1,0.6,1.5,1c0.4,0.4,0.6,1,0.6,1.8
	c0,0.7-0.2,1.3-0.6,1.8c-0.4,0.5-0.9,0.9-1.6,1.1C83.4,15.5,82.6,15.6,81.8,15.6z"/>
<path class="st0" d="M87.8,4.4h1.8v8.3c0,1,0,1.8,0.1,2.6h-1.9V4.4z M87.7,0.9h2.1v1.9h-2.1V0.9z"/>
<path class="st0" d="M95.3,19.5c-1.1,0-2.1-0.2-2.9-0.7s-1.2-1.1-1.2-2c0-0.5,0.2-0.9,0.5-1.3c0.3-0.4,0.8-0.7,1.4-1
	c0.6-0.3,1.3-0.5,2.1-0.7c0.2,0,0.3-0.1,0.4-0.1l0.2,0.3c-0.6,0.2-1.1,0.4-1.5,0.6c-0.4,0.2-0.7,0.5-1,0.8s-0.4,0.6-0.4,1
	c0,0.6,0.2,1,0.7,1.2c0.5,0.3,1.1,0.4,1.9,0.4c0.8,0,1.6-0.1,2.3-0.4c0.8-0.2,1.4-0.6,1.9-1c0.5-0.4,0.7-0.9,0.7-1.5
	c0-0.4-0.1-0.7-0.4-0.9C99.9,14.1,99.5,14,99,14c-0.3,0-0.7,0-1,0.1c-0.4,0.1-0.9,0.2-1.5,0.3c-0.5,0.1-1,0.3-1.3,0.3
	c-0.3,0.1-0.7,0.1-0.9,0.1c-0.5,0-0.9-0.1-1.3-0.2c-0.4-0.1-0.7-0.4-1-0.6c-0.2-0.3-0.4-0.6-0.4-1c0-0.6,0.3-1.1,0.8-1.5
	c0.6-0.4,1.3-0.8,2.3-1l0.4,0.5c-0.3,0.1-0.5,0.2-0.7,0.3c-0.4,0.2-0.7,0.3-0.9,0.6c-0.2,0.2-0.3,0.4-0.3,0.7c0,0.3,0.1,0.5,0.4,0.6
	c0.2,0.1,0.6,0.2,0.9,0.2c0.3,0,0.7,0,1-0.1c0.4-0.1,0.8-0.2,1.2-0.3c0.6-0.1,1-0.3,1.4-0.3c0.4-0.1,0.8-0.1,1.3-0.1
	c0.9,0,1.6,0.2,2.2,0.6c0.5,0.4,0.8,1,0.8,1.9c0,0.9-0.4,1.7-1.1,2.4c-0.7,0.7-1.6,1.2-2.7,1.6C97.6,19.3,96.5,19.5,95.3,19.5z
	 M96.4,11.7c-0.9,0-1.6-0.2-2.3-0.5c-0.7-0.3-1.2-0.8-1.5-1.4C92.2,9.3,92,8.6,92,7.9c0-0.7,0.2-1.3,0.5-1.9c0.4-0.6,0.9-1,1.5-1.3
	c0.7-0.3,1.4-0.5,2.3-0.5c0.6,0,1,0.1,1.4,0.2c0.4,0.1,0.8,0.3,1.2,0.5c0.2,0.1,0.4,0.2,0.6,0.3c0.2,0.1,0.3,0.1,0.5,0.1
	c0.4,0,0.7-0.1,0.9-0.4c0.2-0.3,0.3-0.6,0.3-1l1.5,0.5c0,0.5-0.2,0.9-0.6,1.2c-0.4,0.3-0.9,0.4-1.4,0.4c-0.1,0-0.3,0-0.5,0
	c0.4,0.6,0.6,1.2,0.6,2c0,0.7-0.2,1.3-0.5,1.9c-0.4,0.6-0.9,1-1.5,1.4C98,11.5,97.2,11.7,96.4,11.7z M96.4,10.5c0.5,0,1-0.1,1.3-0.3
	c0.4-0.2,0.7-0.5,0.9-0.9c0.2-0.4,0.3-0.8,0.3-1.3c0-0.7-0.2-1.3-0.7-1.8c-0.4-0.5-1-0.7-1.8-0.7c-0.5,0-1,0.1-1.3,0.3
	c-0.4,0.2-0.7,0.5-0.9,0.9C94,7,93.9,7.4,93.9,7.9c0,0.7,0.2,1.3,0.7,1.8C95,10.2,95.6,10.5,96.4,10.5z"/>
<path class="st0" d="M104,4.4h1.8v3.2c0.3-0.7,0.6-1.3,1.1-1.8c0.5-0.5,1.1-0.9,1.7-1.2c0.6-0.3,1.3-0.4,1.9-0.4
	c0.8,0,1.5,0.2,2,0.5c0.6,0.3,1,0.7,1.2,1.3c0.3,0.5,0.4,1.2,0.4,1.9v4.9c0,1,0,1.8,0.1,2.6h-1.9V8.1c0-0.8-0.2-1.4-0.6-1.8
	c-0.4-0.4-1-0.6-1.9-0.6c-0.6,0-1.3,0.2-1.9,0.6c-0.6,0.4-1.2,0.9-1.6,1.6c-0.4,0.7-0.6,1.5-0.6,2.4v5H104V4.4z"/>
</svg>
